<svg xmlns="http://www.w3.org/2000/svg" xmlns:xlink="http://www.w3.org/1999/xlink" xmlns:lucid="lucid" width="1737.62" height="648"><g transform="translate(-12 -12)" lucid:page-tab-id="0_0"><path d="M40 125c0-2.76 2.24-5 5-5h190c2.76 0 5 2.24 5 5v110c0 2.76-2.24 5-5 5H45c-2.76 0-5-2.24-5-5z" stroke="#666" stroke-width="2" fill="#7ab648"/><use xlink:href="#a" transform="matrix(1,0,0,1,40,120) translate(27.57499999999999 51.9)"/><use xlink:href="#b" transform="matrix(1,0,0,1,40,120) translate(79.52499999999999 51.9)"/><use xlink:href="#c" transform="matrix(1,0,0,1,40,120) translate(8.675000000000011 73.5)"/><path d="M120 245c0-2.76 2.24-5 5-5h30c2.76 0 5 2.24 5 5v390c0 2.76-2.24 5-5 5h-30c-2.76 0-5-2.24-5-5z" stroke="#666" stroke-width="2" fill="#f2f2f2"/><path d="M400 125c0-2.76 2.24-5 5-5h150c2.76 0 5 2.24 5 5v110c0 2.76-2.24 5-5 5H405c-2.76 0-5-2.24-5-5z" stroke="#666" stroke-width="2" fill="#c1e4f7"/><use xlink:href="#d" transform="matrix(1,0,0,1,400,120) translate(0.5679012345678984 62.97222222222222)"/><use xlink:href="#e" transform="matrix(1,0,0,1,400,120) translate(73.45679012345678 62.97222222222222)"/><path d="M720 125c0-2.76 2.24-5 5-5h150c2.76 0 5 2.24 5 5v110c0 2.76-2.24 5-5 5H725c-2.76 0-5-2.24-5-5z" stroke="#666" stroke-width="2" fill="#ffeca9"/><use xlink:href="#f" transform="matrix(1,0,0,1,720,120) translate(32.07407407407406 62.97222222222222)"/><use xlink:href="#g" transform="matrix(1,0,0,1,720,120) translate(98.34567901234568 62.97222222222222)"/><path d="M460 245c0-2.76 2.24-5 5-5h30c2.76 0 5 2.24 5 5v390c0 2.76-2.24 5-5 5h-30c-2.76 0-5-2.24-5-5zM780 405c0-2.76 2.24-5 5-5h30c2.76 0 5 2.24 5 5v70c0 2.76-2.24 5-5 5h-30c-2.76 0-5-2.24-5-5z" stroke="#666" stroke-width="2" fill="#f2f2f2"/><path d="M32 37c0-2.76 2.24-5 5-5h838c2.76 0 5 2.24 5 5v38c0 2.76-2.24 5-5 5H37c-2.76 0-5-2.24-5-5z" fill="none"/><use xlink:href="#h" transform="matrix(1,0,0,1,32,32) translate(0 31.11111111111111)"/><use xlink:href="#i" transform="matrix(1,0,0,1,32,32) translate(120.19753086419755 31.11111111111111)"/><use xlink:href="#j" transform="matrix(1,0,0,1,32,32) translate(254.22222222222226 31.11111111111111)"/><use xlink:href="#k" transform="matrix(1,0,0,1,32,32) translate(463.30864197530866 31.11111111111111)"/><path d="M31.33 80H1728" stroke="#999" stroke-width="2" fill="none"/><path d="M1040 37c0-2.76 2.24-5 5-5h678c2.76 0 5 2.24 5 5v38c0 2.76-2.24 5-5 5h-678c-2.76 0-5-2.24-5-5z" fill="none"/><use xlink:href="#l" transform="matrix(1,0,0,1,1040,32) translate(342.81481481481825 28.4444444444444)"/><use xlink:href="#m" transform="matrix(1,0,0,1,1040,32) translate(430.46913580247167 28.4444444444444)"/><use xlink:href="#n" transform="matrix(1,0,0,1,1040,32) translate(502.0123456790142 28.4444444444444)"/><use xlink:href="#o" transform="matrix(1,0,0,1,1040,32) translate(526.2716049382732 28.4444444444444)"/><use xlink:href="#p" transform="matrix(1,0,0,1,1040,32) translate(601.580246913581 28.4444444444444)"/><use xlink:href="#q" transform="matrix(1,0,0,1,1040,32) translate(638.6172839506178 28.4444444444444)"/><path d="M950 125c0-2.76 2.24-5 5-5h150c2.76 0 5 2.24 5 5v110c0 2.76-2.24 5-5 5H955c-2.76 0-5-2.24-5-5z" stroke="#666" stroke-width="2" fill="#d1bcd2"/><use xlink:href="#r" transform="matrix(1,0,0,1,950,120) translate(46.05499999999999 63.15)"/><path d="M1180 125c0-2.76 2.24-5 5-5h170c2.76 0 5 2.24 5 5v110c0 2.76-2.24 5-5 5h-170c-2.76 0-5-2.24-5-5z" stroke="#666" stroke-width="2" fill="#7ab648"/><use xlink:href="#a" transform="matrix(1,0,0,1,1180,120) translate(17.57999999999999 51.9)"/><use xlink:href="#b" transform="matrix(1,0,0,1,1180,120) translate(69.53 51.9)"/><use xlink:href="#s" transform="matrix(1,0,0,1,1180,120) translate(12.630000000000004 73.5)"/><path d="M1420 125c0-2.76 2.24-5 5-5h150c2.76 0 5 2.24 5 5v110c0 2.76-2.24 5-5 5h-150c-2.76 0-5-2.24-5-5z" stroke="#666" stroke-width="2" fill="#99d5ca"/><use xlink:href="#t" transform="matrix(1,0,0,1,1420,120) translate(47.05499999999999 63.15)"/><path d="M160 270.67h300" stroke="#999" stroke-width="2" fill="none"/><path fill="#999"/><path d="M460 270.67l-14.27 4.63v-9.27z" fill="#999"/><path d="M460 269.62v2.1l-15.27 4.96v-12.03zm-13.27 4.3l10.03-3.25-10.03-3.26z" fill="#999"/><use xlink:href="#u" transform="matrix(1,0,0,1,183.72500000000002,245.06666666666666) translate(0 14.4)"/><path d="M1010 245c0-2.76 2.24-5 5-5h30c2.76 0 5 2.24 5 5v390c0 2.76-2.24 5-5 5h-30c-2.76 0-5-2.24-5-5z" stroke="#666" stroke-width="2" fill="#fff"/><path d="M500 290.67h35c2.76 0 5 2.24 5 5V319c0 2.76-2.24 5-5 5h-35" stroke="#999" stroke-width="2" fill="none"/><path fill="#999"/><path d="M514.27 328.64L500 324l14.27-4.64z" fill="#999"/><path d="M515.27 330L500 325.06v-2.1l15.27-4.96zm-12.03-6l10.03 3.26v-6.52z" fill="#999"/><use xlink:href="#v" transform="matrix(1,0,0,1,548,296.5333333333333) translate(0 14.4)"/><path d="M500 380h510" stroke="#999" stroke-width="2" fill="none"/><path fill="#999"/><path d="M1010 380l-14.27 4.64v-9.28z" fill="#999"/><path d="M1010 378.95v2.1L994.73 386v-12zm-13.27 4.3l10.03-3.25-10.03-3.26z" fill="#999"/><use xlink:href="#w" transform="matrix(1,0,0,1,519.3388888888888,355.20000000000005) translate(0 13.866666666666669)"/><use xlink:href="#x" transform="matrix(1,0,0,1,519.3388888888888,355.20000000000005) translate(10.592592592592595 13.866666666666669)"/><use xlink:href="#y" transform="matrix(1,0,0,1,519.3388888888888,355.20000000000005) translate(52.962962962962976 13.866666666666669)"/><use xlink:href="#z" transform="matrix(1,0,0,1,519.3388888888888,355.20000000000005) translate(246.2296296296297 13.866666666666669)"/><use xlink:href="#A" transform="matrix(1,0,0,1,519.3388888888888,355.20000000000005) translate(316.4777777777779 13.866666666666669)"/><use xlink:href="#B" transform="matrix(1,0,0,1,519.3388888888888,355.20000000000005) translate(327.0703703703705 13.866666666666669)"/><use xlink:href="#C" transform="matrix(1,0,0,1,519.3388888888888,355.20000000000005) translate(454.951851851852 13.866666666666669)"/><use xlink:href="#D" transform="matrix(1,0,0,1,519.3388888888888,355.20000000000005) translate(465.5444444444446 13.866666666666669)"/><path d="M500 442.67h280" stroke="#999" stroke-width="2" fill="none"/><path fill="#999"/><path d="M780 442.67l-14.27 4.63v-9.27z" fill="#999"/><path d="M780 441.62v2.1l-15.27 4.96v-12.03zm-13.27 4.3l10.03-3.25-10.03-3.26z" fill="#999"/><use xlink:href="#E" transform="matrix(1,0,0,1,507.7611111111111,417.86666666666673) translate(0 13.866666666666669)"/><path d="M500 480h35c2.76 0 5 2.24 5 5v34c0 2.76-2.24 5-5 5h-35" stroke="#999" stroke-width="2" fill="none"/><path fill="#999"/><path d="M514.27 528.64L500 524l14.27-4.64z" fill="#999"/><path d="M515.27 530L500 525.06v-2.1l15.27-4.96zm-12.03-6l10.03 3.26v-6.52z" fill="#999"/><use xlink:href="#F" transform="matrix(1,0,0,1,548,491.6) translate(0 13.866666666666669)"/><use xlink:href="#G" transform="matrix(1,0,0,1,548,491.6) translate(151.85925925925926 13.866666666666669)"/><path d="M1260 245c0-2.76 2.24-5 5-5h30c2.76 0 5 2.24 5 5v390c0 2.76-2.24 5-5 5h-30c-2.76 0-5-2.24-5-5z" stroke="#666" stroke-width="2" fill="#fff"/><path d="M500 579.33h510" stroke="#999" stroke-width="2" fill="none"/><path fill="#999"/><path d="M1010 579.33l-14.27 4.64v-9.27z" fill="#999"/><path d="M1010 578.28v2.1l-15.27 4.97v-12.03zm-13.27 4.3l10.03-3.25-10.03-3.26z" fill="#999"/><use xlink:href="#H" transform="matrix(1,0,0,1,511.25,553.7333333333333) translate(0 14.4)"/><use xlink:href="#I" transform="matrix(1,0,0,1,511.25,553.7333333333333) translate(11 14.4)"/><use xlink:href="#J" transform="matrix(1,0,0,1,511.25,553.7333333333333) translate(55 14.4)"/><use xlink:href="#K" transform="matrix(1,0,0,1,511.25,553.7333333333333) translate(203.8 14.4)"/><use xlink:href="#L" transform="matrix(1,0,0,1,511.25,553.7333333333333) translate(276.75 14.4)"/><use xlink:href="#M" transform="matrix(1,0,0,1,511.25,553.7333333333333) translate(287.75 14.4)"/><use xlink:href="#N" transform="matrix(1,0,0,1,511.25,553.7333333333333) translate(425.55 14.4)"/><use xlink:href="#O" transform="matrix(1,0,0,1,511.25,553.7333333333333) translate(470.5 14.4)"/><use xlink:href="#P" transform="matrix(1,0,0,1,511.25,553.7333333333333) translate(481.5 14.4)"/><path d="M800 240v159" fill="none"/><path d="M800 240v10.6m0 10.6v21.2m0 10.6v21.2m0 10.6V346m0 10.6v21.2m0 10.6V399" stroke="#999" stroke-width="2" fill="none"/><path fill="#999"/><path d="M801 400h-2v-1h2z" fill="#999"/><path d="M1050 279.33h210" stroke="#999" stroke-width="2" fill="none"/><path fill="#999"/><path d="M1260 279.33l-14.27 4.64v-9.27z" fill="#999"/><path d="M1260 278.28v2.1l-15.27 4.97v-12.03zm-13.27 4.3l10.03-3.25-10.03-3.26z" fill="#999"/><use xlink:href="#Q" transform="matrix(1,0,0,1,1110.575,253.7333333333333) translate(0 14.4)"/><use xlink:href="#R" transform="matrix(1,0,0,1,1110.575,253.7333333333333) translate(46.85 14.4)"/><path d="M1050 378h210" stroke="#999" stroke-width="2" fill="none"/><path fill="#999"/><path d="M1260 378l-14.27 4.64v-9.28z" fill="#999"/><path d="M1260 376.95v2.1l-15.27 4.96v-12zm-13.27 4.3l10.03-3.25-10.03-3.26z" fill="#999"/><g><use xlink:href="#S" transform="matrix(1,0,0,1,1126.5,352.4) translate(0 14.4)"/><use xlink:href="#T" transform="matrix(1,0,0,1,1126.5,352.4) translate(47 14.4)"/></g><path d="M1050 576.67h210" stroke="#999" stroke-width="2" fill="none"/><path fill="#999"/><path d="M1260 576.67l-14.27 4.63v-9.27z" fill="#999"/><path d="M1260 575.62v2.1l-15.27 4.96v-12.03zm-13.27 4.3l10.03-3.25-10.03-3.26z" fill="#999"/><g><use xlink:href="#S" transform="matrix(1,0,0,1,1126.5,551.0666666666667) translate(0 14.4)"/><use xlink:href="#U" transform="matrix(1,0,0,1,1126.5,551.0666666666667) translate(47 14.4)"/></g><path d="M1480 245c0-2.76 2.24-5 5-5h30c2.76 0 5 2.24 5 5v390c0 2.76-2.24 5-5 5h-30c-2.76 0-5-2.24-5-5z" stroke="#666" stroke-width="2" fill="#fff"/><path d="M1300 279.33h179" stroke="#999" stroke-width="2" fill="none"/><path fill="#999"/><path d="M1479 279.33l-14.27 4.64v-9.27z" fill="#999"/><path d="M1480 278.6v1.46l-16.27 5.3V273.3zm-14.27 4l10.03-3.27-10.03-3.26z" fill="#999"/><g><use xlink:href="#V" transform="matrix(1,0,0,1,1302.1037037037036,254.53333333333333) translate(0 13.866666666666669)"/></g><path d="M1479 318h-179" stroke="#999" stroke-width="2" fill="none"/><path d="M1480 319h-1v-2h1zM1314.27 322.64L1300 318l14.27-4.64z" fill="#999"/><path d="M1315.27 324l-15.27-4.95v-2.1l15.27-4.96zm-12.03-6l10.03 3.26v-6.52z" fill="#999"/><g><use xlink:href="#W" transform="matrix(1,0,0,1,1375.55,292.40000000000003) translate(0 14.4)"/></g><path d="M1300 579.33h179" stroke="#999" stroke-width="2" fill="none"/><path d="M1479 579.33l-14.27 4.64v-9.27z" stroke="#999" stroke-width="2" fill="#999"/><g><use xlink:href="#V" transform="matrix(1,0,0,1,1302.1037037037036,554.5333333333332) translate(0 13.866666666666669)"/></g><path d="M1479 620.67h-178" stroke="#999" stroke-width="2" fill="none"/><path d="M1480 621.67h-1v-2h1zM1315.27 625.3l-14.27-4.63 14.27-4.64z" fill="#999"/><path d="M1316.27 626.68l-16.27-5.3v-1.44l16.27-5.3zm-12.03-6l10.03 3.25v-6.52z" fill="#999"/><g><use xlink:href="#X" transform="matrix(1,0,0,1,1363.55,595.0666666666666) translate(0 14.4)"/></g><defs><path d="M233-177c-1 41-23 64-60 70L243 0h-38l-65-103H63V0H30v-248c88 3 205-21 203 71zM63-129c60-2 137 13 137-47 0-61-80-42-137-45v92" id="Y"/><path d="M100-194c63 0 86 42 84 106H49c0 40 14 67 53 68 26 1 43-12 49-29l28 8c-11 28-37 45-77 45C44 4 14-33 15-96c1-61 26-98 85-98zm52 81c6-60-76-77-97-28-3 7-6 17-6 28h103" id="Z"/><path d="M141-36C126-15 110 5 73 4 37 3 15-17 15-53c-1-64 63-63 125-63 3-35-9-54-41-54-24 1-41 7-42 31l-33-3c5-37 33-52 76-52 45 0 72 20 72 64v82c-1 20 7 32 28 27v20c-31 9-61-2-59-35zM48-53c0 20 12 33 32 33 41-3 63-29 60-74-43 2-92-5-92 41" id="aa"/><path d="M96-169c-40 0-48 33-48 73s9 75 48 75c24 0 41-14 43-38l32 2c-6 37-31 61-74 61-59 0-76-41-82-99-10-93 101-131 147-64 4 7 5 14 7 22l-32 3c-4-21-16-35-41-35" id="ab"/><path d="M59-47c-2 24 18 29 38 22v24C64 9 27 4 27-40v-127H5v-23h24l9-43h21v43h35v23H59v120" id="ac"/><g id="a"><use transform="matrix(0.05,0,0,0.05,0,0)" xlink:href="#Y"/><use transform="matrix(0.05,0,0,0.05,12.950000000000001,0)" xlink:href="#Z"/><use transform="matrix(0.05,0,0,0.05,22.950000000000003,0)" xlink:href="#aa"/><use transform="matrix(0.05,0,0,0.05,32.95,0)" xlink:href="#ab"/><use transform="matrix(0.05,0,0,0.05,41.95,0)" xlink:href="#ac"/><path d="M-.9 1.25h53.75v1.32H-.9z"/></g><path d="M212-179c-10-28-35-45-73-45-59 0-87 40-87 99 0 60 29 101 89 101 43 0 62-24 78-52l27 14C228-24 195 4 139 4 59 4 22-46 18-125c-6-104 99-153 187-111 19 9 31 26 39 46" id="ad"/><path d="M100-194c62-1 85 37 85 99 1 63-27 99-86 99S16-35 15-95c0-66 28-99 85-99zM99-20c44 1 53-31 53-75 0-43-8-75-51-75s-53 32-53 75 10 74 51 75" id="ae"/><path d="M210-169c-67 3-38 105-44 169h-31v-121c0-29-5-50-35-48C34-165 62-65 56 0H25l-1-190h30c1 10-1 24 2 32 10-44 99-50 107 0 11-21 27-35 58-36 85-2 47 119 55 194h-31v-121c0-29-5-49-35-48" id="af"/><path d="M115-194c55 1 70 41 70 98S169 2 115 4C84 4 66-9 55-30l1 105H24l-1-265h31l2 30c10-21 28-34 59-34zm-8 174c40 0 45-34 45-75s-6-73-45-74c-42 0-51 32-51 76 0 43 10 73 51 73" id="ag"/><path d="M117-194c89-4 53 116 60 194h-32v-121c0-31-8-49-39-48C34-167 62-67 57 0H25l-1-190h30c1 10-1 24 2 32 11-22 29-35 61-36" id="ah"/><g id="b"><use transform="matrix(0.05,0,0,0.05,0,0)" xlink:href="#ad"/><use transform="matrix(0.05,0,0,0.05,12.950000000000001,0)" xlink:href="#ae"/><use transform="matrix(0.05,0,0,0.05,22.950000000000003,0)" xlink:href="#af"/><use transform="matrix(0.05,0,0,0.05,37.900000000000006,0)" xlink:href="#ag"/><use transform="matrix(0.05,0,0,0.05,47.900000000000006,0)" xlink:href="#ae"/><use transform="matrix(0.05,0,0,0.05,57.900000000000006,0)" xlink:href="#ah"/><use transform="matrix(0.05,0,0,0.05,67.9,0)" xlink:href="#Z"/><use transform="matrix(0.05,0,0,0.05,77.9,0)" xlink:href="#ah"/><use transform="matrix(0.05,0,0,0.05,87.9,0)" xlink:href="#ac"/><path d="M-.9 1.25h94.7v1.32H-.9z"/></g><path d="M87 75C49 33 22-17 22-94c0-76 28-126 65-167h31c-38 41-64 92-64 168S80 34 118 75H87" id="ai"/><path d="M30-248c118-7 216 8 213 122C240-48 200 0 122 0H30v-248zM63-27c89 8 146-16 146-99s-60-101-146-95v194" id="aj"/><path d="M24-231v-30h32v30H24zM24 0v-190h32V0H24" id="ak"/><path d="M135-143c-3-34-86-38-87 0 15 53 115 12 119 90S17 21 10-45l28-5c4 36 97 45 98 0-10-56-113-15-118-90-4-57 82-63 122-42 12 7 21 19 24 35" id="al"/><path d="M106-169C34-169 62-67 57 0H25v-261h32l-1 103c12-21 28-36 61-36 89 0 53 116 60 194h-32v-121c2-32-8-49-39-48" id="am"/><path d="M127-220V0H93v-220H8v-28h204v28h-85" id="an"/><path d="M30-248c87 1 191-15 191 75 0 78-77 80-158 76V0H30v-248zm33 125c57 0 124 11 124-50 0-59-68-47-124-48v98" id="ao"/><path d="M114-163C36-179 61-72 57 0H25l-1-190h30c1 12-1 29 2 39 6-27 23-49 58-41v29" id="ap"/><path d="M33-261c38 41 65 92 65 168S71 34 33 75H2C39 34 66-17 66-93S39-220 2-261h31" id="aq"/><g id="c"><use transform="matrix(0.05,0,0,0.05,0,0)" xlink:href="#ai"/><use transform="matrix(0.05,0,0,0.05,5.95,0)" xlink:href="#af"/><use transform="matrix(0.05,0,0,0.05,20.900000000000002,0)" xlink:href="#aa"/><use transform="matrix(0.05,0,0,0.05,30.900000000000002,0)" xlink:href="#ag"/><use transform="matrix(0.05,0,0,0.05,40.900000000000006,0)" xlink:href="#aj"/><use transform="matrix(0.05,0,0,0.05,53.85,0)" xlink:href="#ak"/><use transform="matrix(0.05,0,0,0.05,57.80000000000001,0)" xlink:href="#al"/><use transform="matrix(0.05,0,0,0.05,66.80000000000001,0)" xlink:href="#ag"/><use transform="matrix(0.05,0,0,0.05,76.80000000000001,0)" xlink:href="#aa"/><use transform="matrix(0.05,0,0,0.05,86.80000000000001,0)" xlink:href="#ac"/><use transform="matrix(0.05,0,0,0.05,91.80000000000001,0)" xlink:href="#ab"/><use transform="matrix(0.05,0,0,0.05,100.80000000000001,0)" xlink:href="#am"/><use transform="matrix(0.05,0,0,0.05,110.80000000000001,0)" xlink:href="#an"/><use transform="matrix(0.05,0,0,0.05,119.75,0)" xlink:href="#ae"/><use transform="matrix(0.05,0,0,0.05,129.75,0)" xlink:href="#ao"/><use transform="matrix(0.05,0,0,0.05,141.75,0)" xlink:href="#ap"/><use transform="matrix(0.05,0,0,0.05,147.7,0)" xlink:href="#ae"/><use transform="matrix(0.05,0,0,0.05,157.7,0)" xlink:href="#ag"/><use transform="matrix(0.05,0,0,0.05,167.7,0)" xlink:href="#al"/><use transform="matrix(0.05,0,0,0.05,176.7,0)" xlink:href="#aq"/><path d="M-.9 1.25h184.45v1.32H-.9z"/></g><path fill="#333" d="M199 0l-22-63H83L61 0H9l90-248h61L250 0h-51zm-33-102l-36-108c-10 38-24 72-36 108h72" id="ar"/><path fill="#333" d="M67-125c0 53 21 87 73 88 37 1 54-22 65-47l45 17C233-25 199 4 140 4 58 4 20-42 15-125 8-235 124-281 211-232c18 10 29 29 36 50l-46 12c-8-25-30-41-62-41-52 0-71 34-72 86" id="as"/><path fill="#333" d="M136-208V0H84v-208H4v-40h212v40h-80" id="at"/><path fill="#333" d="M24 0v-248h52V0H24" id="au"/><path fill="#333" d="M140-251c80 0 125 45 125 126S219 4 139 4C58 4 15-44 15-125s44-126 125-126zm-1 214c52 0 73-35 73-88 0-50-21-86-72-86-52 0-73 35-73 86s22 88 72 88" id="av"/><path fill="#333" d="M175 0L67-191c6 58 2 128 3 191H24v-248h59L193-55c-6-58-2-129-3-193h46V0h-61" id="aw"/><g id="d"><use transform="matrix(0.04938271604938272,0,0,0.04938271604938272,0,0)" xlink:href="#ar"/><use transform="matrix(0.04938271604938272,0,0,0.04938271604938272,12.790123456790125,0)" xlink:href="#as"/><use transform="matrix(0.04938271604938272,0,0,0.04938271604938272,25.58024691358025,0)" xlink:href="#at"/><use transform="matrix(0.04938271604938272,0,0,0.04938271604938272,36.39506172839506,0)" xlink:href="#au"/><use transform="matrix(0.04938271604938272,0,0,0.04938271604938272,41.333333333333336,0)" xlink:href="#av"/><use transform="matrix(0.04938271604938272,0,0,0.04938271604938272,55.1604938271605,0)" xlink:href="#aw"/></g><path fill="#333" d="M240-174c0 40-23 61-54 70L253 0h-59l-57-94H76V0H24v-248c93 4 217-23 216 74zM76-134c48-2 112 12 112-38 0-48-66-32-112-35v73" id="ax"/><path fill="#333" d="M24 0v-248h195v40H76v63h132v40H76v65h150V0H24" id="ay"/><g id="e"><use transform="matrix(0.04938271604938272,0,0,0.04938271604938272,0,0)" xlink:href="#as"/><use transform="matrix(0.04938271604938272,0,0,0.04938271604938272,12.790123456790125,0)" xlink:href="#ax"/><use transform="matrix(0.04938271604938272,0,0,0.04938271604938272,25.58024691358025,0)" xlink:href="#ay"/><use transform="matrix(0.04938271604938272,0,0,0.04938271604938272,37.4320987654321,0)" xlink:href="#ar"/><use transform="matrix(0.04938271604938272,0,0,0.04938271604938272,48.88888888888889,0)" xlink:href="#at"/><use transform="matrix(0.04938271604938272,0,0,0.04938271604938272,59.35802469135803,0)" xlink:href="#av"/><use transform="matrix(0.04938271604938272,0,0,0.04938271604938272,73.18518518518519,0)" xlink:href="#ax"/></g><path fill="#333" d="M186 0v-106H76V0H24v-248h52v99h110v-99h50V0h-50" id="az"/><path fill="#333" d="M182-130c37 4 62 22 62 59C244 23 116-4 24 0v-248c84 5 203-23 205 63 0 31-19 50-47 55zM76-148c40-3 101 13 101-30 0-44-60-28-101-31v61zm0 110c48-3 116 14 116-37 0-48-69-32-116-35v72" id="aA"/><path fill="#333" d="M24 0v-248h52v208h133V0H24" id="aB"/><g id="f"><use transform="matrix(0.04938271604938272,0,0,0.04938271604938272,0,0)" xlink:href="#az"/><use transform="matrix(0.04938271604938272,0,0,0.04938271604938272,12.790123456790125,0)" xlink:href="#ar"/><use transform="matrix(0.04938271604938272,0,0,0.04938271604938272,25.58024691358025,0)" xlink:href="#aA"/><use transform="matrix(0.04938271604938272,0,0,0.04938271604938272,38.370370370370374,0)" xlink:href="#aB"/><use transform="matrix(0.04938271604938272,0,0,0.04938271604938272,49.18518518518519,0)" xlink:href="#ar"/></g><path fill="#333" d="M24-248c93 1 206-16 204 79-1 75-69 88-152 82V0H24v-248zm52 121c47 0 100 7 100-41 0-47-54-39-100-39v80" id="aC"/><g id="g"><use transform="matrix(0.04938271604938272,0,0,0.04938271604938272,0,0)" xlink:href="#ar"/><use transform="matrix(0.04938271604938272,0,0,0.04938271604938272,12.790123456790125,0)" xlink:href="#aC"/><use transform="matrix(0.04938271604938272,0,0,0.04938271604938272,24.641975308641978,0)" xlink:href="#au"/></g><path fill="#999" d="M182-130c37 4 62 22 62 59C244 23 116-4 24 0v-248c84 5 203-23 205 63 0 31-19 50-47 55zM76-148c40-3 101 13 101-30 0-44-60-28-101-31v61zm0 110c48-3 116 14 116-37 0-48-69-32-116-35v72" id="aD"/><path fill="#999" d="M199 0l-22-63H83L61 0H9l90-248h61L250 0h-51zm-33-102l-36-108c-10 38-24 72-36 108h72" id="aE"/><path fill="#999" d="M169-182c-1-43-94-46-97-3 18 66 151 10 154 114 3 95-165 93-204 36-6-8-10-19-12-30l50-8c3 46 112 56 116 5-17-69-150-10-154-114-4-87 153-88 188-35 5 8 8 18 10 28" id="aF"/><path fill="#999" d="M24 0v-248h52V0H24" id="aG"/><path fill="#999" d="M67-125c0 53 21 87 73 88 37 1 54-22 65-47l45 17C233-25 199 4 140 4 58 4 20-42 15-125 8-235 124-281 211-232c18 10 29 29 36 50l-46 12c-8-25-30-41-62-41-52 0-71 34-72 86" id="aH"/><g id="h"><use transform="matrix(0.09876543209876544,0,0,0.09876543209876544,0,0)" xlink:href="#aD"/><use transform="matrix(0.09876543209876544,0,0,0.09876543209876544,25.58024691358025,0)" xlink:href="#aE"/><use transform="matrix(0.09876543209876544,0,0,0.09876543209876544,51.1604938271605,0)" xlink:href="#aF"/><use transform="matrix(0.09876543209876544,0,0,0.09876543209876544,74.8641975308642,0)" xlink:href="#aG"/><use transform="matrix(0.09876543209876544,0,0,0.09876543209876544,84.74074074074075,0)" xlink:href="#aH"/></g><path fill="#999" d="M240-174c0 40-23 61-54 70L253 0h-59l-57-94H76V0H24v-248c93 4 217-23 216 74zM76-134c48-2 112 12 112-38 0-48-66-32-112-35v73" id="aI"/><path fill="#999" d="M24 0v-248h195v40H76v63h132v40H76v65h150V0H24" id="aJ"/><path fill="#999" d="M24-248c120-7 223 5 221 122C244-46 201 0 124 0H24v-248zM76-40c74 7 117-18 117-86 0-67-45-88-117-82v168" id="aK"/><path fill="#999" d="M238-95c0 69-44 99-111 99C63 4 22-25 22-93v-155h51v151c-1 38 19 59 55 60 90 1 49-130 58-211h52v153" id="aL"/><path fill="#999" d="M182 0l-62-99L58 0H3l86-130-79-118h55l55 88 55-88h55l-75 118L237 0h-55" id="aM"/><g id="i"><use transform="matrix(0.09876543209876544,0,0,0.09876543209876544,0,0)" xlink:href="#aI"/><use transform="matrix(0.09876543209876544,0,0,0.09876543209876544,25.58024691358025,0)" xlink:href="#aJ"/><use transform="matrix(0.09876543209876544,0,0,0.09876543209876544,49.283950617283956,0)" xlink:href="#aK"/><use transform="matrix(0.09876543209876544,0,0,0.09876543209876544,74.8641975308642,0)" xlink:href="#aL"/><use transform="matrix(0.09876543209876544,0,0,0.09876543209876544,100.44444444444446,0)" xlink:href="#aM"/></g><path fill="#999" d="M140-251c80 0 125 45 125 126 0 70-33 111-92 124 6 28 34 38 68 31l-1 36C177 83 129 55 120 2 51-6 15-50 15-125c0-81 44-126 125-126zm-1 214c52 0 73-35 73-88 0-50-21-86-72-86-52 0-73 35-73 86s22 88 72 88" id="aN"/><path fill="#999" d="M175 0L67-191c6 58 2 128 3 191H24v-248h59L193-55c-6-58-2-129-3-193h46V0h-61" id="aO"/><g id="j"><use transform="matrix(0.09876543209876544,0,0,0.09876543209876544,0,0)" xlink:href="#aF"/><use transform="matrix(0.09876543209876544,0,0,0.09876543209876544,23.703703703703706,0)" xlink:href="#aJ"/><use transform="matrix(0.09876543209876544,0,0,0.09876543209876544,47.40740740740741,0)" xlink:href="#aN"/><use transform="matrix(0.09876543209876544,0,0,0.09876543209876544,75.06172839506173,0)" xlink:href="#aL"/><use transform="matrix(0.09876543209876544,0,0,0.09876543209876544,100.64197530864199,0)" xlink:href="#aJ"/><use transform="matrix(0.09876543209876544,0,0,0.09876543209876544,124.34567901234568,0)" xlink:href="#aO"/><use transform="matrix(0.09876543209876544,0,0,0.09876543209876544,149.92592592592595,0)" xlink:href="#aH"/><use transform="matrix(0.09876543209876544,0,0,0.09876543209876544,175.5061728395062,0)" xlink:href="#aJ"/></g><path fill="#999" d="M67-125c0 54 23 88 75 88 28 0 53-7 68-21v-34h-60v-39h108v91C232-14 192 4 140 4 58 4 20-42 15-125 8-236 126-280 215-234c19 10 29 26 37 47l-47 15c-11-23-29-39-63-39-53 1-75 33-75 86" id="aP"/><path fill="#999" d="M230 0l2-204L168 0h-37L68-204 70 0H24v-248h70l56 185 57-185h69V0h-46" id="aQ"/><g id="k"><use transform="matrix(0.09876543209876544,0,0,0.09876543209876544,0,0)" xlink:href="#aK"/><use transform="matrix(0.09876543209876544,0,0,0.09876543209876544,25.58024691358025,0)" xlink:href="#aG"/><use transform="matrix(0.09876543209876544,0,0,0.09876543209876544,35.4567901234568,0)" xlink:href="#aE"/><use transform="matrix(0.09876543209876544,0,0,0.09876543209876544,61.03703703703705,0)" xlink:href="#aP"/><use transform="matrix(0.09876543209876544,0,0,0.09876543209876544,88.69135802469137,0)" xlink:href="#aI"/><use transform="matrix(0.09876543209876544,0,0,0.09876543209876544,114.27160493827161,0)" xlink:href="#aE"/><use transform="matrix(0.09876543209876544,0,0,0.09876543209876544,139.85185185185188,0)" xlink:href="#aQ"/></g><path fill="#999" d="M205 0l-28-72H64L36 0H1l101-248h38L239 0h-34zm-38-99l-47-123c-12 45-31 82-46 123h93" id="aR"/><path fill="#999" d="M117-194c89-4 53 116 60 194h-32v-121c0-31-8-49-39-48C34-167 62-67 57 0H25l-1-190h30c1 10-1 24 2 32 11-22 29-35 61-36" id="aS"/><path fill="#999" d="M59-47c-2 24 18 29 38 22v24C64 9 27 4 27-40v-127H5v-23h24l9-43h21v43h35v23H59v120" id="aT"/><path fill="#999" d="M106-169C34-169 62-67 57 0H25v-261h32l-1 103c12-21 28-36 61-36 89 0 53 116 60 194h-32v-121c2-32-8-49-39-48" id="aU"/><path fill="#999" d="M100-194c62-1 85 37 85 99 1 63-27 99-86 99S16-35 15-95c0-66 28-99 85-99zM99-20c44 1 53-31 53-75 0-43-8-75-51-75s-53 32-53 75 10 74 51 75" id="aV"/><path fill="#999" d="M179-190L93 31C79 59 56 82 12 73V49c39 6 53-20 64-50L1-190h34L92-34l54-156h33" id="aW"/><g id="l"><use transform="matrix(0.06172839506172778,0,0,0.06172839506172778,0,0)" xlink:href="#aR"/><use transform="matrix(0.06172839506172778,0,0,0.06172839506172778,14.814814814814667,0)" xlink:href="#aS"/><use transform="matrix(0.06172839506172778,0,0,0.06172839506172778,27.160493827160224,0)" xlink:href="#aT"/><use transform="matrix(0.06172839506172778,0,0,0.06172839506172778,33.333333333333,0)" xlink:href="#aU"/><use transform="matrix(0.06172839506172778,0,0,0.06172839506172778,45.67901234567856,0)" xlink:href="#aV"/><use transform="matrix(0.06172839506172778,0,0,0.06172839506172778,58.024691358024114,0)" xlink:href="#aS"/><use transform="matrix(0.06172839506172778,0,0,0.06172839506172778,70.37037037036967,0)" xlink:href="#aW"/></g><path fill="#999" d="M30-248c118-7 216 8 213 122C240-48 200 0 122 0H30v-248zM63-27c89 8 146-16 146-99s-60-101-146-95v194" id="aX"/><path fill="#999" d="M141-36C126-15 110 5 73 4 37 3 15-17 15-53c-1-64 63-63 125-63 3-35-9-54-41-54-24 1-41 7-42 31l-33-3c5-37 33-52 76-52 45 0 72 20 72 64v82c-1 20 7 32 28 27v20c-31 9-61-2-59-35zM48-53c0 20 12 33 32 33 41-3 63-29 60-74-43 2-92-5-92 41" id="aY"/><path fill="#999" d="M177-190C167-65 218 103 67 71c-23-6-38-20-44-43l32-5c15 47 100 32 89-28v-30C133-14 115 1 83 1 29 1 15-40 15-95c0-56 16-97 71-98 29-1 48 16 59 35 1-10 0-23 2-32h30zM94-22c36 0 50-32 50-73 0-42-14-75-50-75-39 0-46 34-46 75s6 73 46 73" id="aZ"/><g id="m"><use transform="matrix(0.06172839506172778,0,0,0.06172839506172778,0,0)" xlink:href="#aX"/><use transform="matrix(0.06172839506172778,0,0,0.06172839506172778,15.987654320987495,0)" xlink:href="#aY"/><use transform="matrix(0.06172839506172778,0,0,0.06172839506172778,28.33333333333305,0)" xlink:href="#aZ"/><use transform="matrix(0.06172839506172778,0,0,0.06172839506172778,40.67901234567861,0)" xlink:href="#aY"/></g><path fill="#999" d="M32 76v-337h29V76H32" id="ba"/><use transform="matrix(0.06172839506172778,0,0,0.06172839506172778,0,0)" xlink:href="#ba" id="n"/><path fill="#999" d="M84 4C-5 8 30-112 23-190h32v120c0 31 7 50 39 49 72-2 45-101 50-169h31l1 190h-30c-1-10 1-25-2-33-11 22-28 36-60 37" id="bb"/><path fill="#999" d="M135-143c-3-34-86-38-87 0 15 53 115 12 119 90S17 21 10-45l28-5c4 36 97 45 98 0-10-56-113-15-118-90-4-57 82-63 122-42 12 7 21 19 24 35" id="bc"/><g id="o"><use transform="matrix(0.06172839506172778,0,0,0.06172839506172778,0,0)" xlink:href="#aR"/><use transform="matrix(0.06172839506172778,0,0,0.06172839506172778,14.814814814814667,0)" xlink:href="#bb"/><use transform="matrix(0.06172839506172778,0,0,0.06172839506172778,27.160493827160224,0)" xlink:href="#aZ"/><use transform="matrix(0.06172839506172778,0,0,0.06172839506172778,39.50617283950578,0)" xlink:href="#bb"/><use transform="matrix(0.06172839506172778,0,0,0.06172839506172778,51.851851851851336,0)" xlink:href="#bc"/><use transform="matrix(0.06172839506172778,0,0,0.06172839506172778,62.96296296296234,0)" xlink:href="#aT"/></g><path fill="#999" d="M101-251c82-7 93 87 43 132L82-64C71-53 59-42 53-27h129V0H18c2-99 128-94 128-182 0-28-16-43-45-43s-46 15-49 41l-32-3c6-41 34-60 81-64" id="bd"/><path fill="#999" d="M54-142c48-35 137-8 131 61C196 18 31 33 14-55l32-4c7 23 22 37 52 37 35-1 51-22 54-58 4-55-73-65-99-34H22l8-134h141v27H59" id="be"/><path fill="#999" d="M68-38c1 34 0 65-14 84H32c9-13 17-26 17-46H33v-38h35" id="bf"/><g id="p"><use transform="matrix(0.06172839506172778,0,0,0.06172839506172778,0,0)" xlink:href="#bd"/><use transform="matrix(0.06172839506172778,0,0,0.06172839506172778,12.345679012345556,0)" xlink:href="#be"/><use transform="matrix(0.06172839506172778,0,0,0.06172839506172778,24.691358024691112,0)" xlink:href="#bf"/></g><path fill="#999" d="M101-251c68 0 85 55 85 127S166 4 100 4C33 4 14-52 14-124c0-73 17-127 87-127zm-1 229c47 0 54-49 54-102s-4-102-53-102c-51 0-55 48-55 102 0 53 5 102 54 102" id="bg"/><path fill="#999" d="M27 0v-27h64v-190l-56 39v-29l58-41h29v221h61V0H27" id="bh"/><path fill="#999" d="M64 0c3-98 48-159 88-221H18v-27h164v26C143-157 98-101 97 0H64" id="bi"/><g id="q"><use transform="matrix(0.06172839506172778,0,0,0.06172839506172778,0,0)" xlink:href="#bd"/><use transform="matrix(0.06172839506172778,0,0,0.06172839506172778,12.345679012345556,0)" xlink:href="#bg"/><use transform="matrix(0.06172839506172778,0,0,0.06172839506172778,24.691358024691112,0)" xlink:href="#bh"/><use transform="matrix(0.06172839506172778,0,0,0.06172839506172778,37.03703703703667,0)" xlink:href="#bi"/></g><path d="M85-194c31 0 48 13 60 33l-1-100h32l1 261h-30c-2-10 0-23-3-31C134-8 116 4 85 4 32 4 16-35 15-94c0-66 23-100 70-100zm9 24c-40 0-46 34-46 75 0 40 6 74 45 74 42 0 51-32 51-76 0-42-9-74-50-73" id="bj"/><path d="M84 4C-5 8 30-112 23-190h32v120c0 31 7 50 39 49 72-2 45-101 50-169h31l1 190h-30c-1-10 1-25-2-33-11 22-28 36-60 37" id="bk"/><g id="r"><use transform="matrix(0.05,0,0,0.05,0,0)" xlink:href="#Y"/><use transform="matrix(0.05,0,0,0.05,12.950000000000001,0)" xlink:href="#Z"/><use transform="matrix(0.05,0,0,0.05,22.950000000000003,0)" xlink:href="#bj"/><use transform="matrix(0.05,0,0,0.05,32.95,0)" xlink:href="#bk"/><use transform="matrix(0.05,0,0,0.05,42.95,0)" xlink:href="#ab"/><use transform="matrix(0.05,0,0,0.05,51.95,0)" xlink:href="#Z"/><use transform="matrix(0.05,0,0,0.05,61.95,0)" xlink:href="#ap"/><path d="M-.9 1.25h69.7v1.32H-.9z"/></g><path d="M185-189c-5-48-123-54-124 2 14 75 158 14 163 119 3 78-121 87-175 55-17-10-28-26-33-46l33-7c5 56 141 63 141-1 0-78-155-14-162-118-5-82 145-84 179-34 5 7 8 16 11 25" id="bl"/><g id="s"><use transform="matrix(0.05,0,0,0.05,0,0)" xlink:href="#ai"/><use transform="matrix(0.05,0,0,0.05,5.95,0)" xlink:href="#af"/><use transform="matrix(0.05,0,0,0.05,20.900000000000002,0)" xlink:href="#aa"/><use transform="matrix(0.05,0,0,0.05,30.900000000000002,0)" xlink:href="#ag"/><use transform="matrix(0.05,0,0,0.05,40.900000000000006,0)" xlink:href="#bl"/><use transform="matrix(0.05,0,0,0.05,52.900000000000006,0)" xlink:href="#ac"/><use transform="matrix(0.05,0,0,0.05,57.900000000000006,0)" xlink:href="#aa"/><use transform="matrix(0.05,0,0,0.05,67.9,0)" xlink:href="#ac"/><use transform="matrix(0.05,0,0,0.05,72.9,0)" xlink:href="#Z"/><use transform="matrix(0.05,0,0,0.05,82.9,0)" xlink:href="#an"/><use transform="matrix(0.05,0,0,0.05,91.85000000000001,0)" xlink:href="#ae"/><use transform="matrix(0.05,0,0,0.05,101.85000000000001,0)" xlink:href="#ao"/><use transform="matrix(0.05,0,0,0.05,113.85000000000001,0)" xlink:href="#ap"/><use transform="matrix(0.05,0,0,0.05,119.80000000000001,0)" xlink:href="#ae"/><use transform="matrix(0.05,0,0,0.05,129.8,0)" xlink:href="#ag"/><use transform="matrix(0.05,0,0,0.05,139.8,0)" xlink:href="#al"/><use transform="matrix(0.05,0,0,0.05,148.8,0)" xlink:href="#aq"/><path d="M-.9 1.25h156.55v1.32H-.9z"/></g><path d="M24 0v-261h32V0H24" id="bm"/><g id="t"><use transform="matrix(0.05,0,0,0.05,0,0)" xlink:href="#bl"/><use transform="matrix(0.05,0,0,0.05,12,0)" xlink:href="#Z"/><use transform="matrix(0.05,0,0,0.05,22,0)" xlink:href="#bm"/><use transform="matrix(0.05,0,0,0.05,25.950000000000003,0)" xlink:href="#Z"/><use transform="matrix(0.05,0,0,0.05,35.95,0)" xlink:href="#ab"/><use transform="matrix(0.05,0,0,0.05,44.95,0)" xlink:href="#ac"/><use transform="matrix(0.05,0,0,0.05,49.95,0)" xlink:href="#ae"/><use transform="matrix(0.05,0,0,0.05,59.95,0)" xlink:href="#ap"/><path d="M-.9 1.25h67.7v1.32H-.9z"/></g><path d="M145-31C134-9 116 4 85 4 32 4 16-35 15-94c0-59 17-99 70-100 32-1 48 14 60 33 0-11-1-24 2-32h30l-1 268h-32zM93-21c41 0 51-33 51-76s-8-73-50-73c-40 0-46 35-46 75s5 74 45 74" id="bn"/><path d="M115-194c53 0 69 39 70 98 0 66-23 100-70 100C84 3 66-7 56-30L54 0H23l1-261h32v101c10-23 28-34 59-34zm-8 174c40 0 45-34 45-75 0-40-5-75-45-74-42 0-51 32-51 76 0 43 10 73 51 73" id="bo"/><path d="M140-251c81 0 123 46 123 126C263-46 219 4 140 4 59 4 17-45 17-125s42-126 123-126zm0 227c63 0 89-41 89-101s-29-99-89-99c-61 0-89 39-89 99S79-25 140-24" id="bp"/><path d="M177-190C167-65 218 103 67 71c-23-6-38-20-44-43l32-5c15 47 100 32 89-28v-30C133-14 115 1 83 1 29 1 15-40 15-95c0-56 16-97 71-98 29-1 48 16 59 35 1-10 0-23 2-32h30zM94-22c36 0 50-32 50-73 0-42-14-75-50-75-39 0-46 34-46 75s6 73 46 73" id="bq"/><path d="M33 0v-248h34V0H33" id="br"/><g id="u"><use transform="matrix(0.05,0,0,0.05,0,0)" xlink:href="#ap"/><use transform="matrix(0.05,0,0,0.05,5.95,0)" xlink:href="#Z"/><use transform="matrix(0.05,0,0,0.05,15.949999999999998,0)" xlink:href="#bn"/><use transform="matrix(0.05,0,0,0.05,25.950000000000003,0)" xlink:href="#bk"/><use transform="matrix(0.05,0,0,0.05,35.95,0)" xlink:href="#Z"/><use transform="matrix(0.05,0,0,0.05,45.95,0)" xlink:href="#al"/><use transform="matrix(0.05,0,0,0.05,54.95,0)" xlink:href="#ac"/><use transform="matrix(0.05,0,0,0.05,59.95,0)" xlink:href="#an"/><use transform="matrix(0.05,0,0,0.05,68.9,0)" xlink:href="#Z"/><use transform="matrix(0.05,0,0,0.05,78.9,0)" xlink:href="#aa"/><use transform="matrix(0.05,0,0,0.05,88.9,0)" xlink:href="#af"/><use transform="matrix(0.05,0,0,0.05,103.85000000000001,0)" xlink:href="#al"/><use transform="matrix(0.05,0,0,0.05,112.85000000000001,0)" xlink:href="#ai"/><use transform="matrix(0.05,0,0,0.05,118.80000000000001,0)" xlink:href="#al"/><use transform="matrix(0.05,0,0,0.05,127.80000000000001,0)" xlink:href="#bk"/><use transform="matrix(0.05,0,0,0.05,137.8,0)" xlink:href="#bo"/><use transform="matrix(0.05,0,0,0.05,147.8,0)" xlink:href="#al"/><use transform="matrix(0.05,0,0,0.05,156.8,0)" xlink:href="#ab"/><use transform="matrix(0.05,0,0,0.05,165.8,0)" xlink:href="#ap"/><use transform="matrix(0.05,0,0,0.05,171.75,0)" xlink:href="#ak"/><use transform="matrix(0.05,0,0,0.05,175.7,0)" xlink:href="#bo"/><use transform="matrix(0.05,0,0,0.05,185.7,0)" xlink:href="#Z"/><use transform="matrix(0.05,0,0,0.05,195.7,0)" xlink:href="#ap"/><use transform="matrix(0.05,0,0,0.05,201.64999999999998,0)" xlink:href="#bp"/><use transform="matrix(0.05,0,0,0.05,215.64999999999998,0)" xlink:href="#ap"/><use transform="matrix(0.05,0,0,0.05,221.59999999999997,0)" xlink:href="#bq"/><use transform="matrix(0.05,0,0,0.05,231.59999999999997,0)" xlink:href="#br"/><use transform="matrix(0.05,0,0,0.05,236.59999999999997,0)" xlink:href="#bj"/><use transform="matrix(0.05,0,0,0.05,246.59999999999997,0)" xlink:href="#aq"/></g><g id="v"><use transform="matrix(0.05,0,0,0.05,0,0)" xlink:href="#ap"/><use transform="matrix(0.05,0,0,0.05,5.95,0)" xlink:href="#Z"/><use transform="matrix(0.05,0,0,0.05,15.949999999999998,0)" xlink:href="#bn"/><use transform="matrix(0.05,0,0,0.05,25.950000000000003,0)" xlink:href="#bk"/><use transform="matrix(0.05,0,0,0.05,35.95,0)" xlink:href="#Z"/><use transform="matrix(0.05,0,0,0.05,45.95,0)" xlink:href="#al"/><use transform="matrix(0.05,0,0,0.05,54.95,0)" xlink:href="#ac"/><use transform="matrix(0.05,0,0,0.05,59.95,0)" xlink:href="#ak"/><use transform="matrix(0.05,0,0,0.05,63.900000000000006,0)" xlink:href="#ah"/><use transform="matrix(0.05,0,0,0.05,73.9,0)" xlink:href="#bq"/><use transform="matrix(0.05,0,0,0.05,83.9,0)" xlink:href="#an"/><use transform="matrix(0.05,0,0,0.05,92.85000000000001,0)" xlink:href="#Z"/><use transform="matrix(0.05,0,0,0.05,102.85000000000001,0)" xlink:href="#aa"/><use transform="matrix(0.05,0,0,0.05,112.85000000000001,0)" xlink:href="#af"/><use transform="matrix(0.05,0,0,0.05,127.80000000000001,0)" xlink:href="#al"/><use transform="matrix(0.05,0,0,0.05,136.8,0)" xlink:href="#ai"/><use transform="matrix(0.05,0,0,0.05,142.75,0)" xlink:href="#al"/><use transform="matrix(0.05,0,0,0.05,151.75,0)" xlink:href="#bk"/><use transform="matrix(0.05,0,0,0.05,161.75,0)" xlink:href="#bo"/><use transform="matrix(0.05,0,0,0.05,171.75,0)" xlink:href="#al"/><use transform="matrix(0.05,0,0,0.05,180.75,0)" xlink:href="#ab"/><use transform="matrix(0.05,0,0,0.05,189.75,0)" xlink:href="#ap"/><use transform="matrix(0.05,0,0,0.05,195.7,0)" xlink:href="#ak"/><use transform="matrix(0.05,0,0,0.05,199.64999999999998,0)" xlink:href="#bo"/><use transform="matrix(0.05,0,0,0.05,209.64999999999998,0)" xlink:href="#Z"/><use transform="matrix(0.05,0,0,0.05,219.64999999999998,0)" xlink:href="#ap"/><use transform="matrix(0.05,0,0,0.05,225.59999999999997,0)" xlink:href="#bp"/><use transform="matrix(0.05,0,0,0.05,239.59999999999997,0)" xlink:href="#ap"/><use transform="matrix(0.05,0,0,0.05,245.54999999999995,0)" xlink:href="#bq"/><use transform="matrix(0.05,0,0,0.05,255.54999999999995,0)" xlink:href="#br"/><use transform="matrix(0.05,0,0,0.05,260.54999999999995,0)" xlink:href="#bj"/><use transform="matrix(0.05,0,0,0.05,270.54999999999995,0)" xlink:href="#aq"/></g><path d="M39-94c74 12-11 154 75 146v23c-44 4-70-10-70-52C44-23 55-84 6-82v-22c81 4-7-162 84-157h24v23c-82-15-2 131-75 144" id="bs"/><use transform="matrix(0.048148148148148155,0,0,0.048148148148148155,0,0)" xlink:href="#bs" id="w"/><path d="M179-190L93 31C79 59 56 82 12 73V49c39 6 53-20 64-50L1-190h34L92-34l54-156h33" id="bt"/><path d="M33-154v-36h34v36H33zM33 0v-36h34V0H33" id="bu"/><g id="x"><use transform="matrix(0.048148148148148155,0,0,0.048148148148148155,0,0)" xlink:href="#ac"/><use transform="matrix(0.048148148148148155,0,0,0.048148148148148155,4.814814814814816,0)" xlink:href="#bt"/><use transform="matrix(0.048148148148148155,0,0,0.048148148148148155,13.481481481481483,0)" xlink:href="#ag"/><use transform="matrix(0.048148148148148155,0,0,0.048148148148148155,23.111111111111114,0)" xlink:href="#Z"/><use transform="matrix(0.048148148148148155,0,0,0.048148148148148155,32.74074074074075,0)" xlink:href="#bu"/></g><path d="M30 0v-248h187v28H63v79h144v27H63v87h162V0H30" id="bv"/><path d="M140-251c81 0 123 46 123 126C263-53 228-8 163 1c7 30 30 48 69 40v23c-55 16-95-15-103-61C56-3 17-48 17-125c0-80 42-126 123-126zm0 227c63 0 89-41 89-101s-29-99-89-99c-61 0-89 39-89 99S79-25 140-24" id="bw"/><path d="M232-93c-1 65-40 97-104 97C67 4 28-28 28-90v-158h33c8 89-33 224 67 224 102 0 64-133 71-224h33v155" id="bx"/><path d="M190 0L58-211 59 0H30v-248h39L202-35l-2-213h31V0h-41" id="by"/><path d="M143 4C61 4 22-44 18-125c-5-107 100-154 193-111 17 8 29 25 37 43l-32 9c-13-25-37-40-76-40-61 0-88 39-88 99 0 61 29 100 91 101 35 0 62-11 79-27v-45h-74v-28h105v86C228-13 192 4 143 4" id="bz"/><path d="M-5 72V49h209v23H-5" id="bA"/><path d="M205 0l-28-72H64L36 0H1l101-248h38L239 0h-34zm-38-99l-47-123c-12 45-31 82-46 123h93" id="bB"/><path d="M240 0l2-218c-23 76-54 145-80 218h-23L58-218 59 0H30v-248h44l77 211c21-75 51-140 76-211h43V0h-30" id="bC"/><path d="M68-38c1 34 0 65-14 84H32c9-13 17-26 17-46H33v-38h35" id="bD"/><g id="y"><use transform="matrix(0.048148148148148155,0,0,0.048148148148148155,0,0)" xlink:href="#Y"/><use transform="matrix(0.048148148148148155,0,0,0.048148148148148155,12.470370370370372,0)" xlink:href="#bv"/><use transform="matrix(0.048148148148148155,0,0,0.048148148148148155,24.02592592592593,0)" xlink:href="#bw"/><use transform="matrix(0.048148148148148155,0,0,0.048148148148148155,37.50740740740741,0)" xlink:href="#bx"/><use transform="matrix(0.048148148148148155,0,0,0.048148148148148155,49.97777777777779,0)" xlink:href="#bv"/><use transform="matrix(0.048148148148148155,0,0,0.048148148148148155,61.533333333333346,0)" xlink:href="#bl"/><use transform="matrix(0.048148148148148155,0,0,0.048148148148148155,73.0888888888889,0)" xlink:href="#an"/><use transform="matrix(0.048148148148148155,0,0,0.048148148148148155,83.63333333333335,0)" xlink:href="#br"/><use transform="matrix(0.048148148148148155,0,0,0.048148148148148155,88.44814814814816,0)" xlink:href="#by"/><use transform="matrix(0.048148148148148155,0,0,0.048148148148148155,100.91851851851854,0)" xlink:href="#bz"/><use transform="matrix(0.048148148148148155,0,0,0.048148148148148155,114.40000000000002,0)" xlink:href="#bA"/><use transform="matrix(0.048148148148148155,0,0,0.048148148148148155,124.02962962962965,0)" xlink:href="#an"/><use transform="matrix(0.048148148148148155,0,0,0.048148148148148155,134.5740740740741,0)" xlink:href="#bv"/><use transform="matrix(0.048148148148148155,0,0,0.048148148148148155,146.12962962962968,0)" xlink:href="#bB"/><use transform="matrix(0.048148148148148155,0,0,0.048148148148148155,157.68518518518522,0)" xlink:href="#bC"/><use transform="matrix(0.048148148148148155,0,0,0.048148148148148155,172.08148148148152,0)" xlink:href="#bl"/><use transform="matrix(0.048148148148148155,0,0,0.048148148148148155,183.6370370370371,0)" xlink:href="#bD"/></g><g id="z"><use transform="matrix(0.048148148148148155,0,0,0.048148148148148155,0,0)" xlink:href="#ag"/><use transform="matrix(0.048148148148148155,0,0,0.048148148148148155,9.629629629629632,0)" xlink:href="#aa"/><use transform="matrix(0.048148148148148155,0,0,0.048148148148148155,19.259259259259263,0)" xlink:href="#bt"/><use transform="matrix(0.048148148148148155,0,0,0.048148148148148155,27.92592592592593,0)" xlink:href="#bm"/><use transform="matrix(0.048148148148148155,0,0,0.048148148148148155,31.729629629629635,0)" xlink:href="#ae"/><use transform="matrix(0.048148148148148155,0,0,0.048148148148148155,41.35925925925927,0)" xlink:href="#aa"/><use transform="matrix(0.048148148148148155,0,0,0.048148148148148155,50.988888888888894,0)" xlink:href="#bj"/><use transform="matrix(0.048148148148148155,0,0,0.048148148148148155,60.61851851851854,0)" xlink:href="#bu"/></g><use transform="matrix(0.048148148148148155,0,0,0.048148148148148155,0,0)" xlink:href="#bs" id="A"/><g id="B"><use transform="matrix(0.048148148148148155,0,0,0.048148148148148155,0,0)" xlink:href="#al"/><use transform="matrix(0.048148148148148155,0,0,0.048148148148148155,8.666666666666668,0)" xlink:href="#bk"/><use transform="matrix(0.048148148148148155,0,0,0.048148148148148155,18.296296296296298,0)" xlink:href="#bo"/><use transform="matrix(0.048148148148148155,0,0,0.048148148148148155,27.92592592592593,0)" xlink:href="#al"/><use transform="matrix(0.048148148148148155,0,0,0.048148148148148155,36.592592592592595,0)" xlink:href="#ab"/><use transform="matrix(0.048148148148148155,0,0,0.048148148148148155,45.25925925925927,0)" xlink:href="#ap"/><use transform="matrix(0.048148148148148155,0,0,0.048148148148148155,50.988888888888894,0)" xlink:href="#ak"/><use transform="matrix(0.048148148148148155,0,0,0.048148148148148155,54.7925925925926,0)" xlink:href="#bo"/><use transform="matrix(0.048148148148148155,0,0,0.048148148148148155,64.42222222222223,0)" xlink:href="#Z"/><use transform="matrix(0.048148148148148155,0,0,0.048148148148148155,74.05185185185186,0)" xlink:href="#ap"/><use transform="matrix(0.048148148148148155,0,0,0.048148148148148155,79.78148148148149,0)" xlink:href="#bp"/><use transform="matrix(0.048148148148148155,0,0,0.048148148148148155,93.26296296296297,0)" xlink:href="#ap"/><use transform="matrix(0.048148148148148155,0,0,0.048148148148148155,98.9925925925926,0)" xlink:href="#bq"/><use transform="matrix(0.048148148148148155,0,0,0.048148148148148155,108.62222222222223,0)" xlink:href="#br"/><use transform="matrix(0.048148148148148155,0,0,0.048148148148148155,113.43703703703706,0)" xlink:href="#bj"/></g><path d="M76-40C78 24 84 88 6 75V52C86 64 9-79 80-94c-40-6-34-59-34-106 1-29-11-41-40-38v-23c44-4 70 10 70 52 0 47-12 108 38 105v22c-26 1-39 14-38 42" id="bE"/><use transform="matrix(0.048148148148148155,0,0,0.048148148148148155,0,0)" xlink:href="#bE" id="C"/><use transform="matrix(0.048148148148148155,0,0,0.048148148148148155,0,0)" xlink:href="#bE" id="D"/><path d="M0 4l72-265h28L28 4H0" id="bF"/><path d="M103-251c84 0 111 97 45 133-19 10-37 24-39 52H78c0-63 77-55 77-114 0-30-21-42-52-43-32 0-53 17-56 46l-32-2c7-45 34-72 88-72zM77 0v-35h34V0H77" id="bG"/><g id="E"><use transform="matrix(0.048148148148148155,0,0,0.048148148148148155,0,0)" xlink:href="#bF"/><use transform="matrix(0.048148148148148155,0,0,0.048148148148148155,4.814814814814816,0)" xlink:href="#ac"/><use transform="matrix(0.048148148148148155,0,0,0.048148148148148155,9.629629629629632,0)" xlink:href="#Z"/><use transform="matrix(0.048148148148148155,0,0,0.048148148148148155,19.259259259259263,0)" xlink:href="#aa"/><use transform="matrix(0.048148148148148155,0,0,0.048148148148148155,28.888888888888893,0)" xlink:href="#af"/><use transform="matrix(0.048148148148148155,0,0,0.048148148148148155,43.28518518518519,0)" xlink:href="#al"/><use transform="matrix(0.048148148148148155,0,0,0.048148148148148155,51.951851851851856,0)" xlink:href="#bF"/><use transform="matrix(0.048148148148148155,0,0,0.048148148148148155,56.76666666666667,0)" xlink:href="#bq"/><use transform="matrix(0.048148148148148155,0,0,0.048148148148148155,66.3962962962963,0)" xlink:href="#Z"/><use transform="matrix(0.048148148148148155,0,0,0.048148148148148155,76.02592592592593,0)" xlink:href="#ac"/><use transform="matrix(0.048148148148148155,0,0,0.048148148148148155,80.84074074074074,0)" xlink:href="#an"/><use transform="matrix(0.048148148148148155,0,0,0.048148148148148155,89.45925925925927,0)" xlink:href="#Z"/><use transform="matrix(0.048148148148148155,0,0,0.048148148148148155,99.0888888888889,0)" xlink:href="#aa"/><use transform="matrix(0.048148148148148155,0,0,0.048148148148148155,108.71851851851854,0)" xlink:href="#af"/><use transform="matrix(0.048148148148148155,0,0,0.048148148148148155,123.11481481481484,0)" xlink:href="#al"/><use transform="matrix(0.048148148148148155,0,0,0.048148148148148155,131.7814814814815,0)" xlink:href="#bG"/><use transform="matrix(0.048148148148148155,0,0,0.048148148148148155,141.41111111111113,0)" xlink:href="#al"/><use transform="matrix(0.048148148148148155,0,0,0.048148148148148155,150.07777777777778,0)" xlink:href="#bk"/><use transform="matrix(0.048148148148148155,0,0,0.048148148148148155,159.7074074074074,0)" xlink:href="#bo"/><use transform="matrix(0.048148148148148155,0,0,0.048148148148148155,169.33703703703702,0)" xlink:href="#al"/><use transform="matrix(0.048148148148148155,0,0,0.048148148148148155,178.00370370370368,0)" xlink:href="#ab"/><use transform="matrix(0.048148148148148155,0,0,0.048148148148148155,186.67037037037034,0)" xlink:href="#ap"/><use transform="matrix(0.048148148148148155,0,0,0.048148148148148155,192.39999999999998,0)" xlink:href="#ak"/><use transform="matrix(0.048148148148148155,0,0,0.048148148148148155,196.2037037037037,0)" xlink:href="#bo"/><use transform="matrix(0.048148148148148155,0,0,0.048148148148148155,205.83333333333331,0)" xlink:href="#Z"/><use transform="matrix(0.048148148148148155,0,0,0.048148148148148155,215.46296296296296,0)" xlink:href="#ap"/><use transform="matrix(0.048148148148148155,0,0,0.048148148148148155,221.19259259259258,0)" xlink:href="#bp"/><use transform="matrix(0.048148148148148155,0,0,0.048148148148148155,234.67407407407407,0)" xlink:href="#ap"/><use transform="matrix(0.048148148148148155,0,0,0.048148148148148155,240.40370370370368,0)" xlink:href="#bq"/><use transform="matrix(0.048148148148148155,0,0,0.048148148148148155,250.03333333333333,0)" xlink:href="#br"/><use transform="matrix(0.048148148148148155,0,0,0.048148148148148155,254.84814814814814,0)" xlink:href="#bj"/></g><path d="M108 0H70L1-190h34L89-25l56-165h34" id="bH"/><g id="F"><use transform="matrix(0.048148148148148155,0,0,0.048148148148148155,0,0)" xlink:href="#ap"/><use transform="matrix(0.048148148148148155,0,0,0.048148148148148155,5.72962962962963,0)" xlink:href="#Z"/><use transform="matrix(0.048148148148148155,0,0,0.048148148148148155,15.359259259259261,0)" xlink:href="#ab"/><use transform="matrix(0.048148148148148155,0,0,0.048148148148148155,24.02592592592593,0)" xlink:href="#Z"/><use transform="matrix(0.048148148148148155,0,0,0.048148148148148155,33.65555555555556,0)" xlink:href="#ak"/><use transform="matrix(0.048148148148148155,0,0,0.048148148148148155,37.45925925925926,0)" xlink:href="#bH"/><use transform="matrix(0.048148148148148155,0,0,0.048148148148148155,46.12592592592593,0)" xlink:href="#Z"/><use transform="matrix(0.048148148148148155,0,0,0.048148148148148155,55.75555555555557,0)" xlink:href="#an"/><use transform="matrix(0.048148148148148155,0,0,0.048148148148148155,64.37407407407409,0)" xlink:href="#Z"/><use transform="matrix(0.048148148148148155,0,0,0.048148148148148155,74.00370370370372,0)" xlink:href="#aa"/><use transform="matrix(0.048148148148148155,0,0,0.048148148148148155,83.63333333333335,0)" xlink:href="#af"/><use transform="matrix(0.048148148148148155,0,0,0.048148148148148155,98.02962962962965,0)" xlink:href="#ai"/><use transform="matrix(0.048148148148148155,0,0,0.048148148148148155,103.75925925925928,0)" xlink:href="#ac"/><use transform="matrix(0.048148148148148155,0,0,0.048148148148148155,108.57407407407409,0)" xlink:href="#Z"/><use transform="matrix(0.048148148148148155,0,0,0.048148148148148155,118.20370370370372,0)" xlink:href="#aa"/><use transform="matrix(0.048148148148148155,0,0,0.048148148148148155,127.83333333333336,0)" xlink:href="#af"/><use transform="matrix(0.048148148148148155,0,0,0.048148148148148155,142.22962962962964,0)" xlink:href="#bD"/></g><g id="G"><use transform="matrix(0.048148148148148155,0,0,0.048148148148148155,0,0)" xlink:href="#al"/><use transform="matrix(0.048148148148148155,0,0,0.048148148148148155,8.666666666666668,0)" xlink:href="#bk"/><use transform="matrix(0.048148148148148155,0,0,0.048148148148148155,18.296296296296298,0)" xlink:href="#bo"/><use transform="matrix(0.048148148148148155,0,0,0.048148148148148155,27.92592592592593,0)" xlink:href="#al"/><use transform="matrix(0.048148148148148155,0,0,0.048148148148148155,36.592592592592595,0)" xlink:href="#ab"/><use transform="matrix(0.048148148148148155,0,0,0.048148148148148155,45.25925925925927,0)" xlink:href="#ap"/><use transform="matrix(0.048148148148148155,0,0,0.048148148148148155,50.988888888888894,0)" xlink:href="#ak"/><use transform="matrix(0.048148148148148155,0,0,0.048148148148148155,54.7925925925926,0)" xlink:href="#bo"/><use transform="matrix(0.048148148148148155,0,0,0.048148148148148155,64.42222222222223,0)" xlink:href="#Z"/><use transform="matrix(0.048148148148148155,0,0,0.048148148148148155,74.05185185185186,0)" xlink:href="#ap"/><use transform="matrix(0.048148148148148155,0,0,0.048148148148148155,79.78148148148149,0)" xlink:href="#bp"/><use transform="matrix(0.048148148148148155,0,0,0.048148148148148155,93.26296296296297,0)" xlink:href="#ap"/><use transform="matrix(0.048148148148148155,0,0,0.048148148148148155,98.9925925925926,0)" xlink:href="#bq"/><use transform="matrix(0.048148148148148155,0,0,0.048148148148148155,108.62222222222223,0)" xlink:href="#br"/><use transform="matrix(0.048148148148148155,0,0,0.048148148148148155,113.43703703703706,0)" xlink:href="#bj"/><use transform="matrix(0.048148148148148155,0,0,0.048148148148148155,123.06666666666669,0)" xlink:href="#aq"/></g><use transform="matrix(0.05,0,0,0.05,0,0)" xlink:href="#bs" id="H"/><g id="I"><use transform="matrix(0.05,0,0,0.05,0,0)" xlink:href="#ac"/><use transform="matrix(0.05,0,0,0.05,5,0)" xlink:href="#bt"/><use transform="matrix(0.05,0,0,0.05,14,0)" xlink:href="#ag"/><use transform="matrix(0.05,0,0,0.05,24,0)" xlink:href="#Z"/><use transform="matrix(0.05,0,0,0.05,34,0)" xlink:href="#bu"/></g><path d="M137 0h-34L2-248h35l83 218 83-218h36" id="bI"/><g id="J"><use transform="matrix(0.05,0,0,0.05,0,0)" xlink:href="#Y"/><use transform="matrix(0.05,0,0,0.05,12.950000000000001,0)" xlink:href="#bv"/><use transform="matrix(0.05,0,0,0.05,24.950000000000003,0)" xlink:href="#ad"/><use transform="matrix(0.05,0,0,0.05,37.900000000000006,0)" xlink:href="#bv"/><use transform="matrix(0.05,0,0,0.05,49.900000000000006,0)" xlink:href="#br"/><use transform="matrix(0.05,0,0,0.05,54.900000000000006,0)" xlink:href="#bI"/><use transform="matrix(0.05,0,0,0.05,66.9,0)" xlink:href="#bv"/><use transform="matrix(0.05,0,0,0.05,78.9,0)" xlink:href="#bA"/><use transform="matrix(0.05,0,0,0.05,88.9,0)" xlink:href="#an"/><use transform="matrix(0.05,0,0,0.05,99.85000000000001,0)" xlink:href="#bv"/><use transform="matrix(0.05,0,0,0.05,111.85000000000001,0)" xlink:href="#bB"/><use transform="matrix(0.05,0,0,0.05,123.85000000000001,0)" xlink:href="#bC"/><use transform="matrix(0.05,0,0,0.05,138.8,0)" xlink:href="#bD"/></g><g id="K"><use transform="matrix(0.05,0,0,0.05,0,0)" xlink:href="#ag"/><use transform="matrix(0.05,0,0,0.05,10,0)" xlink:href="#aa"/><use transform="matrix(0.05,0,0,0.05,20,0)" xlink:href="#bt"/><use transform="matrix(0.05,0,0,0.05,29,0)" xlink:href="#bm"/><use transform="matrix(0.05,0,0,0.05,32.95,0)" xlink:href="#ae"/><use transform="matrix(0.05,0,0,0.05,42.95,0)" xlink:href="#aa"/><use transform="matrix(0.05,0,0,0.05,52.95,0)" xlink:href="#bj"/><use transform="matrix(0.05,0,0,0.05,62.95,0)" xlink:href="#bu"/></g><use transform="matrix(0.05,0,0,0.05,0,0)" xlink:href="#bs" id="L"/><g id="M"><use transform="matrix(0.05,0,0,0.05,0,0)" xlink:href="#al"/><use transform="matrix(0.05,0,0,0.05,9,0)" xlink:href="#bk"/><use transform="matrix(0.05,0,0,0.05,19,0)" xlink:href="#bo"/><use transform="matrix(0.05,0,0,0.05,29,0)" xlink:href="#al"/><use transform="matrix(0.05,0,0,0.05,38,0)" xlink:href="#ab"/><use transform="matrix(0.05,0,0,0.05,47,0)" xlink:href="#ap"/><use transform="matrix(0.05,0,0,0.05,52.95,0)" xlink:href="#ak"/><use transform="matrix(0.05,0,0,0.05,56.900000000000006,0)" xlink:href="#bo"/><use transform="matrix(0.05,0,0,0.05,66.9,0)" xlink:href="#Z"/><use transform="matrix(0.05,0,0,0.05,76.9,0)" xlink:href="#ap"/><use transform="matrix(0.05,0,0,0.05,82.85000000000001,0)" xlink:href="#bp"/><use transform="matrix(0.05,0,0,0.05,96.85000000000001,0)" xlink:href="#ap"/><use transform="matrix(0.05,0,0,0.05,102.80000000000001,0)" xlink:href="#bq"/><use transform="matrix(0.05,0,0,0.05,112.80000000000001,0)" xlink:href="#br"/><use transform="matrix(0.05,0,0,0.05,117.80000000000001,0)" xlink:href="#bj"/><use transform="matrix(0.05,0,0,0.05,127.80000000000001,0)" xlink:href="#bD"/></g><g id="N"><use transform="matrix(0.05,0,0,0.05,0,0)" xlink:href="#ac"/><use transform="matrix(0.05,0,0,0.05,5,0)" xlink:href="#Z"/><use transform="matrix(0.05,0,0,0.05,15,0)" xlink:href="#aa"/><use transform="matrix(0.05,0,0,0.05,25,0)" xlink:href="#af"/></g><use transform="matrix(0.05,0,0,0.05,0,0)" xlink:href="#bE" id="O"/><use transform="matrix(0.05,0,0,0.05,0,0)" xlink:href="#bE" id="P"/><path fill="#c92d39" d="M33 0v-248h34V0H33" id="bJ"/><path fill="#c92d39" d="M117-194c89-4 53 116 60 194h-32v-121c0-31-8-49-39-48C34-167 62-67 57 0H25l-1-190h30c1 10-1 24 2 32 11-22 29-35 61-36" id="bK"/><path fill="#c92d39" d="M24-231v-30h32v30H24zM24 0v-190h32V0H24" id="bL"/><path fill="#c92d39" d="M59-47c-2 24 18 29 38 22v24C64 9 27 4 27-40v-127H5v-23h24l9-43h21v43h35v23H59v120" id="bM"/><path fill="#c92d39" d="M141-36C126-15 110 5 73 4 37 3 15-17 15-53c-1-64 63-63 125-63 3-35-9-54-41-54-24 1-41 7-42 31l-33-3c5-37 33-52 76-52 45 0 72 20 72 64v82c-1 20 7 32 28 27v20c-31 9-61-2-59-35zM48-53c0 20 12 33 32 33 41-3 63-29 60-74-43 2-92-5-92 41" id="bN"/><path fill="#c92d39" d="M24 0v-261h32V0H24" id="bO"/><g id="Q"><use transform="matrix(0.05,0,0,0.05,0,0)" xlink:href="#bJ"/><use transform="matrix(0.05,0,0,0.05,5,0)" xlink:href="#bK"/><use transform="matrix(0.05,0,0,0.05,15,0)" xlink:href="#bL"/><use transform="matrix(0.05,0,0,0.05,18.95,0)" xlink:href="#bM"/><use transform="matrix(0.05,0,0,0.05,23.95,0)" xlink:href="#bL"/><use transform="matrix(0.05,0,0,0.05,27.899999999999995,0)" xlink:href="#bN"/><use transform="matrix(0.05,0,0,0.05,37.9,0)" xlink:href="#bO"/></g><path fill="#c92d39" d="M185-189c-5-48-123-54-124 2 14 75 158 14 163 119 3 78-121 87-175 55-17-10-28-26-33-46l33-7c5 56 141 63 141-1 0-78-155-14-162-118-5-82 145-84 179-34 5 7 8 16 11 25" id="bP"/><path fill="#c92d39" d="M100-194c63 0 86 42 84 106H49c0 40 14 67 53 68 26 1 43-12 49-29l28 8c-11 28-37 45-77 45C44 4 14-33 15-96c1-61 26-98 85-98zm52 81c6-60-76-77-97-28-3 7-6 17-6 28h103" id="bQ"/><g id="R"><use transform="matrix(0.05,0,0,0.05,0,0)" xlink:href="#bP"/><use transform="matrix(0.05,0,0,0.05,12,0)" xlink:href="#bM"/><use transform="matrix(0.05,0,0,0.05,17,0)" xlink:href="#bN"/><use transform="matrix(0.05,0,0,0.05,27,0)" xlink:href="#bM"/><use transform="matrix(0.05,0,0,0.05,32,0)" xlink:href="#bQ"/></g><g id="S"><use transform="matrix(0.05,0,0,0.05,0,0)" xlink:href="#bP"/><use transform="matrix(0.05,0,0,0.05,12,0)" xlink:href="#bM"/><use transform="matrix(0.05,0,0,0.05,17,0)" xlink:href="#bN"/><use transform="matrix(0.05,0,0,0.05,27,0)" xlink:href="#bM"/><use transform="matrix(0.05,0,0,0.05,32,0)" xlink:href="#bQ"/></g><path fill="#c92d39" d="M27 0v-27h64v-190l-56 39v-29l58-41h29v221h61V0H27" id="bR"/><use transform="matrix(0.05,0,0,0.05,0,0)" xlink:href="#bR" id="T"/><path fill="#c92d39" d="M101-251c82-7 93 87 43 132L82-64C71-53 59-42 53-27h129V0H18c2-99 128-94 128-182 0-28-16-43-45-43s-46 15-49 41l-32-3c6-41 34-60 81-64" id="bS"/><use transform="matrix(0.05,0,0,0.05,0,0)" xlink:href="#bS" id="U"/><path d="M101-234c-31-9-42 10-38 44h38v23H63V0H32v-167H5v-23h27c-7-52 17-82 69-68v24" id="bT"/><g id="V"><use transform="matrix(0.048148148148148155,0,0,0.048148148148148155,0,0)" xlink:href="#bq"/><use transform="matrix(0.048148148148148155,0,0,0.048148148148148155,9.629629629629632,0)" xlink:href="#Z"/><use transform="matrix(0.048148148148148155,0,0,0.048148148148148155,19.259259259259263,0)" xlink:href="#ac"/><use transform="matrix(0.048148148148148155,0,0,0.048148148148148155,24.07407407407408,0)" xlink:href="#an"/><use transform="matrix(0.048148148148148155,0,0,0.048148148148148155,32.6925925925926,0)" xlink:href="#Z"/><use transform="matrix(0.048148148148148155,0,0,0.048148148148148155,42.32222222222223,0)" xlink:href="#aa"/><use transform="matrix(0.048148148148148155,0,0,0.048148148148148155,51.951851851851856,0)" xlink:href="#af"/><use transform="matrix(0.048148148148148155,0,0,0.048148148148148155,66.34814814814817,0)" xlink:href="#al"/><use transform="matrix(0.048148148148148155,0,0,0.048148148148148155,75.01481481481484,0)" xlink:href="#bp"/><use transform="matrix(0.048148148148148155,0,0,0.048148148148148155,88.49629629629632,0)" xlink:href="#bT"/><use transform="matrix(0.048148148148148155,0,0,0.048148148148148155,93.31111111111113,0)" xlink:href="#bl"/><use transform="matrix(0.048148148148148155,0,0,0.048148148148148155,104.86666666666669,0)" xlink:href="#bk"/><use transform="matrix(0.048148148148148155,0,0,0.048148148148148155,114.49629629629631,0)" xlink:href="#bo"/><use transform="matrix(0.048148148148148155,0,0,0.048148148148148155,124.12592592592597,0)" xlink:href="#al"/><use transform="matrix(0.048148148148148155,0,0,0.048148148148148155,132.79259259259263,0)" xlink:href="#ab"/><use transform="matrix(0.048148148148148155,0,0,0.048148148148148155,141.45925925925928,0)" xlink:href="#ap"/><use transform="matrix(0.048148148148148155,0,0,0.048148148148148155,147.18888888888893,0)" xlink:href="#ak"/><use transform="matrix(0.048148148148148155,0,0,0.048148148148148155,150.99259259259264,0)" xlink:href="#bo"/><use transform="matrix(0.048148148148148155,0,0,0.048148148148148155,160.62222222222226,0)" xlink:href="#Z"/><use transform="matrix(0.048148148148148155,0,0,0.048148148148148155,170.25185185185188,0)" xlink:href="#ap"/><use transform="matrix(0.048148148148148155,0,0,0.048148148148148155,175.98148148148152,0)" xlink:href="#bp"/><use transform="matrix(0.048148148148148155,0,0,0.048148148148148155,189.46296296296302,0)" xlink:href="#ap"/><use transform="matrix(0.048148148148148155,0,0,0.048148148148148155,195.19259259259266,0)" xlink:href="#bq"/><use transform="matrix(0.048148148148148155,0,0,0.048148148148148155,204.8222222222223,0)" xlink:href="#br"/><use transform="matrix(0.048148148148148155,0,0,0.048148148148148155,209.63703703703706,0)" xlink:href="#bj"/><use transform="matrix(0.048148148148148155,0,0,0.048148148148148155,219.2666666666667,0)" xlink:href="#ai"/><use transform="matrix(0.048148148148148155,0,0,0.048148148148148155,224.99629629629632,0)" xlink:href="#al"/><use transform="matrix(0.048148148148148155,0,0,0.048148148148148155,233.662962962963,0)" xlink:href="#bk"/><use transform="matrix(0.048148148148148155,0,0,0.048148148148148155,243.29259259259263,0)" xlink:href="#bo"/><use transform="matrix(0.048148148148148155,0,0,0.048148148148148155,252.92222222222225,0)" xlink:href="#al"/><use transform="matrix(0.048148148148148155,0,0,0.048148148148148155,261.5888888888889,0)" xlink:href="#ab"/><use transform="matrix(0.048148148148148155,0,0,0.048148148148148155,270.2555555555556,0)" xlink:href="#ap"/><use transform="matrix(0.048148148148148155,0,0,0.048148148148148155,275.98518518518523,0)" xlink:href="#ak"/><use transform="matrix(0.048148148148148155,0,0,0.048148148148148155,279.78888888888895,0)" xlink:href="#bo"/><use transform="matrix(0.048148148148148155,0,0,0.048148148148148155,289.41851851851857,0)" xlink:href="#Z"/><use transform="matrix(0.048148148148148155,0,0,0.048148148148148155,299.0481481481482,0)" xlink:href="#ap"/><use transform="matrix(0.048148148148148155,0,0,0.048148148148148155,304.7777777777778,0)" xlink:href="#bp"/><use transform="matrix(0.048148148148148155,0,0,0.048148148148148155,318.2592592592593,0)" xlink:href="#ap"/><use transform="matrix(0.048148148148148155,0,0,0.048148148148148155,323.98888888888894,0)" xlink:href="#bq"/><use transform="matrix(0.048148148148148155,0,0,0.048148148148148155,333.61851851851856,0)" xlink:href="#br"/><use transform="matrix(0.048148148148148155,0,0,0.048148148148148155,338.4333333333334,0)" xlink:href="#bj"/><use transform="matrix(0.048148148148148155,0,0,0.048148148148148155,348.062962962963,0)" xlink:href="#aq"/></g><g id="W"><use transform="matrix(0.05,0,0,0.05,0,0)" xlink:href="#ah"/><use transform="matrix(0.05,0,0,0.05,10,0)" xlink:href="#bk"/><use transform="matrix(0.05,0,0,0.05,20,0)" xlink:href="#bm"/><use transform="matrix(0.05,0,0,0.05,23.95,0)" xlink:href="#bm"/></g><path fill="#c92d39" d="M127-220V0H93v-220H8v-28h204v28h-85" id="bU"/><path fill="#c92d39" d="M210-169c-67 3-38 105-44 169h-31v-121c0-29-5-50-35-48C34-165 62-65 56 0H25l-1-190h30c1 10-1 24 2 32 10-44 99-50 107 0 11-21 27-35 58-36 85-2 47 119 55 194h-31v-121c0-29-5-49-35-48" id="bV"/><path fill="#c92d39" d="M135-143c-3-34-86-38-87 0 15 53 115 12 119 90S17 21 10-45l28-5c4 36 97 45 98 0-10-56-113-15-118-90-4-57 82-63 122-42 12 7 21 19 24 35" id="bW"/><g id="X"><use transform="matrix(0.05,0,0,0.05,0,0)" xlink:href="#bU"/><use transform="matrix(0.05,0,0,0.05,8.950000000000001,0)" xlink:href="#bQ"/><use transform="matrix(0.05,0,0,0.05,18.950000000000003,0)" xlink:href="#bN"/><use transform="matrix(0.05,0,0,0.05,28.950000000000003,0)" xlink:href="#bV"/><use transform="matrix(0.05,0,0,0.05,43.900000000000006,0)" xlink:href="#bW"/></g></defs></g></svg>